<svg width="103" height="115" viewBox="0 0 103 115" xmlns="http://www.w3.org/2000/svg" xmlns:xlink="http://www.w3.org/1999/xlink"><title>icon 1</title><defs><path d="M51.883 40H27.007C16.504 40 8 48.51 8 59.007v14.698h19.476v-9.232a3.999 3.999 0 0 1 3.997-3.997h20.41V40z" id="a"/><mask id="i" x="0" y="0" width="43.883" height="33.705" fill="#fff"><use xlink:href="#a"/></mask><path id="b" d="M50 8h10v27H50z"/><mask id="j" x="0" y="0" width="10" height="27" fill="#fff"><use xlink:href="#b"/></mask><rect id="c" x="45" y="23" width="20" height="12" rx="3"/><mask id="k" x="0" y="0" width="20" height="12" fill="#fff"><use xlink:href="#c"/></mask><path d="M49.502 3H36.007A3.998 3.998 0 0 0 32 7c0 2.205 1.794 4 4.007 4h12.86a7.503 7.503 0 0 0 6.633 4 7.506 7.506 0 0 0 6.633-4h12.86A3.998 3.998 0 0 0 79 7c0-2.205-1.794-4-4.007-4H61.498a7.493 7.493 0 0 0-11.996 0z" id="d"/><mask id="l" x="0" y="0" width="47" height="15" fill="#fff"><use xlink:href="#d"/></mask><rect id="e" x="64" y="38" width="30" height="24" rx="3"/><mask id="m" x="0" y="0" width="30" height="24" fill="#fff"><use xlink:href="#e"/></mask><path d="M61.327 114.544c7.284 0 13.19-5.905 13.19-13.19 0-7.284-9.393-13.802-13.258-22.7-3.044 8.898-13.121 15.416-13.121 22.7 0 7.285 5.905 13.19 13.19 13.19z" id="f"/><mask id="n" x="0" y="0" width="26.379" height="35.89" fill="#fff"><use xlink:href="#f"/></mask><path d="M78.9 87.51a7.487 7.487 0 0 0 7.487-7.487c0-4.135-5.331-7.835-7.526-12.886-1.727 5.05-7.448 8.75-7.448 12.886A7.487 7.487 0 0 0 78.9 87.51z" id="g"/><mask id="o" x="0" y="0" width="14.974" height="20.373" fill="#fff"><use xlink:href="#g"/></mask><rect id="h" x="36" y="30" width="39" height="39" rx="10"/><mask id="p" x="0" y="0" width="39" height="39" fill="#fff"><use xlink:href="#h"/></mask></defs><g fill="none" fill-rule="evenodd"><rect fill="#F5F5F6" y="3" width="103" height="103" rx="51.5"/><use stroke="#4F5B79" mask="url(#i)" stroke-width="4" stroke-linecap="round" stroke-linejoin="round" fill="#FFF" xlink:href="#a"/><use stroke="#4F5B79" mask="url(#j)" stroke-width="4" stroke-linecap="round" stroke-linejoin="round" fill="#FFF" xlink:href="#b"/><use stroke="#4F5B79" mask="url(#k)" stroke-width="4" stroke-linecap="round" stroke-linejoin="round" fill="#FFF" xlink:href="#c"/><use stroke="#4F5B79" mask="url(#l)" stroke-width="4" stroke-linecap="round" stroke-linejoin="round" fill="#FFF" xlink:href="#d"/><use stroke="#4F5B79" mask="url(#m)" stroke-width="4" stroke-linecap="round" stroke-linejoin="round" fill="#FFF" xlink:href="#e"/><use stroke="#4F5B79" mask="url(#n)" stroke-width="4" stroke-linecap="round" stroke-linejoin="round" fill="#9FC1E8" xlink:href="#f"/><use stroke="#4F5B79" mask="url(#o)" stroke-width="4" stroke-linecap="round" stroke-linejoin="round" fill="#DDE0E3" xlink:href="#g"/><use stroke="#4F5B79" mask="url(#p)" stroke-width="4" stroke-linecap="round" stroke-linejoin="round" fill="#FFF" xlink:href="#h"/><path d="M77.5 42.5v15.033m3-15.033v15.033m3-15.033v15.033m3-15.033v15.033m3-15.033v15.033" stroke="#7D8BAF" stroke-linecap="round" stroke-linejoin="round"/><path d="M43.112 43.382v-3.31s.041-3.136 3.152-3.136H51.1" stroke="#7A88AA" stroke-width="2" stroke-linecap="round" stroke-linejoin="round"/><circle fill="#FFF" cx="59.5" cy="105.5" r="2.5"/><circle fill="#FFF" cx="77.5" cy="81.5" r="1.5"/></g></svg>