<svg width="130" height="107" viewBox="0 0 130 107" xmlns="http://www.w3.org/2000/svg" xmlns:xlink="http://www.w3.org/1999/xlink"><title>Group 11</title><defs><rect id="a" width="40.99" height="56" rx="4"/><mask id="d" x="0" y="0" width="40.99" height="56" fill="#fff"><use xlink:href="#a"/></mask><rect id="b" width="40.99" height="56" rx="4"/><mask id="e" x="0" y="0" width="40.99" height="56" fill="#fff"><use xlink:href="#b"/></mask><rect id="c" width="65.034" height="88.849" rx="4"/><mask id="f" x="0" y="0" width="65.034" height="88.849" fill="#fff"><use xlink:href="#c"/></mask></defs><g fill="none" fill-rule="evenodd"><g transform="translate(0 51)"><use stroke="#A1A1A3" mask="url(#d)" stroke-width="4" stroke-linecap="round" stroke-linejoin="round" fill="#FFF" xlink:href="#a"/><rect fill="#C6C6C7" x="12" y="36" width="17" height="2" rx="1"/><rect fill="#C6C6C7" x="11" y="40" width="19" height="2" rx="1"/><rect fill="#C6C6C7" x="13" y="44" width="15" height="2" rx="1"/><path fill="#C6C6C7" d="M13.5 29.75l-1.47.773.281-1.637-1.189-1.159 1.643-.238L13.5 26l.735 1.489 1.643.238-1.19 1.16.281 1.636zm15 0l-1.47.773.281-1.637-1.189-1.159 1.643-.238L28.5 26l.735 1.489 1.643.238-1.19 1.16.281 1.636zm-7.5.225L19.146 31l.354-2.17-1.5-1.538 2.073-.317L21 25l.927 1.975 2.073.317-1.5 1.537.354 2.171zM20 9c-3.308 0-6 2.692-6 6s2.692 6 6 6 6-2.692 6-6-2.692-6-6-6zm3.802 9.205v-.804c0-.944-.765-1.706-1.704-1.706h-.982a2.312 2.312 0 1 0-2.231 0h-.983c-.942 0-1.704.762-1.704 1.706v.804A4.953 4.953 0 0 1 15.024 15 4.982 4.982 0 0 1 20 10.024 4.982 4.982 0 0 1 24.976 15a4.95 4.95 0 0 1-1.174 3.205z"/></g><g transform="translate(89)"><use stroke="#A1A1A3" mask="url(#e)" stroke-width="4" stroke-linecap="round" stroke-linejoin="round" fill="#FFF" xlink:href="#b"/><rect fill="#C6C6C7" x="12" y="36" width="17" height="2" rx="1"/><rect fill="#C6C6C7" x="11" y="40" width="19" height="2" rx="1"/><rect fill="#C6C6C7" x="13" y="44" width="15" height="2" rx="1"/><path fill="#C6C6C7" d="M13.5 29.75l-1.47.773.281-1.637-1.189-1.159 1.643-.238L13.5 26l.735 1.489 1.643.238-1.19 1.16.281 1.636zm15 0l-1.47.773.281-1.637-1.189-1.159 1.643-.238L28.5 26l.735 1.489 1.643.238-1.19 1.16.281 1.636zm-7.5.225L19.146 31l.354-2.17-1.5-1.538 2.073-.317L21 25l.927 1.975 2.073.317-1.5 1.537.354 2.171zM20 9c-3.308 0-6 2.692-6 6s2.692 6 6 6 6-2.692 6-6-2.692-6-6-6zm3.802 9.205v-.804c0-.944-.765-1.706-1.704-1.706h-.982a2.312 2.312 0 1 0-2.231 0h-.983c-.942 0-1.704.762-1.704 1.706v.804A4.953 4.953 0 0 1 15.024 15 4.982 4.982 0 0 1 20 10.024 4.982 4.982 0 0 1 24.976 15a4.95 4.95 0 0 1-1.174 3.205z"/></g><g transform="translate(33 9)"><rect fill-opacity=".2" fill="#4F5B79" x="4" y="4" width="65.034" height="88.849" rx="4"/><use stroke="#4F5B79" mask="url(#f)" stroke-width="4" stroke-linecap="round" stroke-linejoin="round" fill="#FFF" xlink:href="#c"/><rect fill="#99A5C4" x="19" y="54" width="28.452" height="3.231" rx="1.615"/><path fill="#99A5C4" d="M21 47l-2.351 1.236.449-2.618-1.902-1.854 2.628-.382L21 41l1.176 2.382 2.628.382-1.902 1.854.45 2.618zm24 0l-2.351 1.236.449-2.618-1.902-1.854 2.628-.382L45 41l1.176 2.382 2.628.382-1.902 1.854.45 2.618zm-12 .67l-3.202 1.684.612-3.565-2.59-2.525 3.58-.52L33 39.5l1.6 3.244 3.58.52-2.59 2.525.612 3.565z"/><rect fill="#99A5C4" x="18" y="60" width="30.891" height="3.231" rx="1.615"/><rect fill="#99A5C4" x="21" y="66" width="24.388" height="3.231" rx="1.615"/><path d="M33 16c-5.514 0-10 4.486-10 10s4.486 10 10 10 10-4.486 10-10-4.486-10-10-10zm6.337 15.342v-1.34a2.842 2.842 0 0 0-2.84-2.844h-1.638A3.853 3.853 0 0 0 33 19.932a3.852 3.852 0 1 0-1.86 7.226h-1.636a2.84 2.84 0 0 0-2.84 2.843v1.341A8.255 8.255 0 0 1 24.705 26c0-4.573 3.72-8.294 8.294-8.294s8.294 3.72 8.294 8.294a8.255 8.255 0 0 1-1.957 5.342z" fill="#58668A"/></g></g></svg>