<svg width="115" height="109" viewBox="0 0 115 109" xmlns="http://www.w3.org/2000/svg" xmlns:xlink="http://www.w3.org/1999/xlink"><title>icon2</title><defs><rect id="a" width="65.034" height="89.765" rx="4"/><mask id="d" x="0" y="0" width="65.034" height="89.765" fill="#fff"><use xlink:href="#a"/></mask><rect id="b" width="65.034" height="89.765" rx="4"/><mask id="e" x="0" y="0" width="65.034" height="89.765" fill="#fff"><use xlink:href="#b"/></mask><mask id="f" x="0" y="0" width="65.034" height="89.765" fill="#fff"><use xlink:href="#b"/></mask><rect id="c" width="65.034" height="88.849" rx="4"/><mask id="g" x="0" y="0" width="65.034" height="88.849" fill="#fff"><use xlink:href="#c"/></mask></defs><g fill="none" fill-rule="evenodd"><g transform="rotate(-10 104.233 8.958)"><use stroke="#4F5B79" mask="url(#d)" stroke-width="4" stroke-linecap="round" stroke-linejoin="round" fill="#FFF" xlink:href="#a"/><rect fill="#D9DADA" x="6.503" y="23.665" width="38.207" height="3.264" rx="1.632"/><rect fill="#D9DADA" x="6.503" y="31.826" width="28.452" height="3.264" rx="1.632"/><rect fill="#D9DADA" x="6.503" y="39.986" width="30.891" height="3.264" rx="1.632"/><rect fill="#D9DADA" x="6.503" y="48.147" width="24.388" height="3.264" rx="1.632"/><rect fill="#D9DADA" x="6.503" y="56.307" width="32.517" height="3.264" rx="1.632"/><rect fill="#99A5C4" x="50.401" y="23.665" width="7.316" height="3.264" rx="1.632"/><rect fill="#99A5C4" x="50.401" y="31.826" width="7.316" height="3.264" rx="1.632"/><rect fill="#99A5C4" x="50.401" y="39.986" width="7.316" height="3.264" rx="1.632"/><rect fill="#99A5C4" x="50.401" y="48.147" width="7.316" height="3.264" rx="1.632"/><rect fill="#99A5C4" x="50.401" y="56.307" width="7.316" height="3.264" rx="1.632"/><rect fill="#D9DADA" x="6.503" y="8.976" width="23.575" height="8.16" rx="4"/><text font-family="sans-serif" font-size="18" font-weight="500" letter-spacing="2.25" fill="#4F5B79"><tspan x="25.439" y="80.87">$$</tspan> <tspan x="48.407" y="80.87" letter-spacing="2.531">$</tspan></text></g><g transform="rotate(9 24.946 320.676)"><g stroke="#4F5252" mask="url(#e)" stroke-width="4" stroke-linecap="round" stroke-linejoin="round" fill="#FFF"><use mask="url(#f)" xlink:href="#b"/></g><rect fill="#D9DADA" x="6.503" y="23.665" width="38.207" height="3.264" rx="1.632"/><rect fill="#99A5C4" x="6.503" y="31.826" width="28.452" height="3.264" rx="1.632"/><rect fill="#99A5C4" x="6.503" y="39.986" width="30.891" height="3.264" rx="1.632"/><rect fill="#99A5C4" x="6.503" y="48.147" width="24.388" height="3.264" rx="1.632"/><rect fill="#99A5C4" x="6.503" y="56.307" width="32.517" height="3.264" rx="1.632"/><rect fill="#D9DADA" x="50.401" y="23.665" width="7.316" height="3.264" rx="1.632"/><rect fill="#D9DADA" x="50.401" y="31.826" width="7.316" height="3.264" rx="1.632"/><rect fill="#D9DADA" x="50.401" y="39.986" width="7.316" height="3.264" rx="1.632"/><rect fill="#D9DADA" x="50.401" y="48.147" width="7.316" height="3.264" rx="1.632"/><rect fill="#D9DADA" x="50.401" y="56.307" width="7.316" height="3.264" rx="1.632"/><rect fill="#D9DADA" x="6.503" y="8.976" width="23.575" height="8.16" rx="4"/><text font-family="sans-serif" font-size="18" font-weight="500" letter-spacing="2.25" fill="#4F5B79"><tspan x="26.845" y="81.196">$$</tspan> <tspan x="49.813" y="81.196" letter-spacing="2.531">$</tspan></text></g><g transform="translate(26 20)"><use stroke="#4F5B79" mask="url(#g)" stroke-width="4" stroke-linecap="round" stroke-linejoin="round" fill="#FFF" xlink:href="#c"/><rect fill="#99A5C4" x="6.503" y="23.424" width="38.207" height="3.231" rx="1.615"/><rect fill="#99A5C4" x="6.503" y="31.501" width="28.452" height="3.231" rx="1.615"/><rect fill="#99A5C4" x="6.503" y="39.578" width="30.891" height="3.231" rx="1.615"/><rect fill="#99A5C4" x="6.503" y="47.655" width="24.388" height="3.231" rx="1.615"/><rect fill="#99A5C4" x="6.503" y="55.732" width="32.517" height="3.231" rx="1.615"/><rect fill="#99A5C4" x="50.401" y="23.424" width="7.316" height="3.231" rx="1.615"/><rect fill="#99A5C4" x="50.401" y="31.501" width="7.316" height="3.231" rx="1.615"/><rect fill="#99A5C4" x="50.401" y="39.578" width="7.316" height="3.231" rx="1.615"/><rect fill="#99A5C4" x="50.401" y="47.655" width="7.316" height="3.231" rx="1.615"/><rect fill="#99A5C4" x="50.401" y="55.732" width="7.316" height="3.231" rx="1.615"/><rect fill="#99A5C4" x="6.503" y="8.885" width="23.575" height="8.077" rx="4"/><text font-family="sans-serif" font-size="18" font-weight="500" letter-spacing="2.25" fill="#4F5B79"><tspan x="26.848" y="79.411">$$</tspan> <tspan x="49.816" y="79.411" letter-spacing="2.531">$</tspan></text></g></g></svg>